<svg xmlns:xlink="http://www.w3.org/1999/xlink" width="166.156" xmlns="http://www.w3.org/2000/svg" height="166.188" id="screenshot-669d3590-48db-11ed-919a-998e2771e906" viewBox="-0 0 166.156 166.188" style="-webkit-print-color-adjust: exact;" fill="none" version="1.1"><g id="shape-669d3590-48db-11ed-919a-998e2771e906" xmlns:xlink="http://www.w3.org/1999/xlink" version="1.0" width="600" height="199.41692" rx="0" ry="0" style="fill: rgb(0, 0, 0);"><g id="shape-669df8e0-48db-11ed-919a-998e2771e906" rx="0" ry="0" style="fill: rgb(0, 0, 0);"><g id="shape-669e4700-48db-11ed-919a-998e2771e906" rx="0" ry="0" style="fill: rgb(217, 224, 238);"><g id="shape-66a2dae0-48db-11ed-919a-998e2771e906"><g id="fills-66a2dae0-48db-11ed-919a-998e2771e906"><path rx="0" ry="0" d="M83.063,0C75.666,18.135,71.204,29.998,62.969,47.594C68.018,52.946,74.216,59.179,84.281,66.219C73.46,61.766,66.079,57.295,60.563,52.656C50.023,74.649,33.51,105.977,0,166.188C26.338,150.982,46.754,141.608,65.781,138.031C64.964,134.517,64.5,130.716,64.531,126.75L64.563,125.906C64.98,109.032,73.758,96.056,84.156,96.938C94.554,97.819,102.637,112.22,102.219,129.094C102.14,132.269,101.782,135.323,101.156,138.156C119.977,141.838,140.175,151.188,166.156,166.188C161.033,156.756,156.461,148.254,152.094,140.156C145.215,134.825,138.041,127.886,123.406,120.375C133.465,122.989,140.667,126.004,146.281,129.375C101.883,46.713,98.288,35.729,83.063,0ZZ" style="fill-rule: evenodd; stroke: none; fill: rgb(217, 224, 238); fill-opacity: 1;"/></g></g></g></g></g></svg>